<svg width="35" height="35" viewBox="0 0 35 35" fill="none" xmlns="http://www.w3.org/2000/svg">
<circle cx="17.4" cy="17.3805" r="16.7999" fill="#F53838"/>
<path d="M17.4 0.580566C8.12148 0.580566 0.599976 8.10209 0.599976 17.3806C0.599976 26.6591 8.12148 34.1807 17.4 34.1807C26.6785 34.1807 34.2 26.6591 34.2 17.3806C34.2 8.10209 26.6785 0.580566 17.4 0.580566ZM24.2337 14.3426C24.2407 14.4861 24.2425 14.6296 24.2425 14.7696C24.2425 19.1446 20.9157 24.1864 14.8292 24.1864C13.0307 24.1894 11.2697 23.6728 9.75773 22.6989C10.015 22.7304 10.2792 22.7426 10.547 22.7426C12.0975 22.7426 13.5237 22.2159 14.656 21.3269C13.966 21.3133 13.2974 21.0848 12.7434 20.6733C12.1894 20.2617 11.7777 19.6876 11.5655 19.0309C12.061 19.1251 12.5715 19.1053 13.0582 18.9731C12.3093 18.8217 11.6358 18.4159 11.152 17.8245C10.6681 17.2332 10.4037 16.4927 10.4035 15.7286V15.6884C10.8497 15.9351 11.3607 16.0856 11.9032 16.1031C11.2011 15.6357 10.7041 14.9178 10.5138 14.0961C10.3235 13.2744 10.4543 12.411 10.8795 11.6826C11.7106 12.7046 12.7472 13.5407 13.922 14.1366C15.0968 14.7326 16.3836 15.0753 17.6992 15.1424C17.532 14.4324 17.604 13.6871 17.904 13.0222C18.204 12.3574 18.7153 11.8103 19.3584 11.4661C20.0014 11.1218 20.7402 10.9996 21.4598 11.1185C22.1794 11.2374 22.8396 11.5908 23.3377 12.1236C24.0783 11.9771 24.7884 11.7054 25.4377 11.3203C25.1909 12.0871 24.6742 12.7382 23.9835 13.1526C24.6395 13.0736 25.28 12.8972 25.884 12.6294C25.4403 13.2942 24.8815 13.8744 24.2337 14.3426V14.3426Z" fill="white"/>
</svg>
