<svg width="34" height="35" viewBox="0 0 34 35" fill="none" xmlns="http://www.w3.org/2000/svg">
<circle cx="17" cy="17.3805" r="16.7999" fill="#F53838"/>
<path d="M22.25 17.3806C22.25 18.773 21.6968 20.1084 20.7123 21.0929C19.7277 22.0775 18.3923 22.6306 17 22.6306C15.6076 22.6306 14.2722 22.0775 13.2876 21.0929C12.3031 20.1084 11.75 18.773 11.75 17.3806C11.75 17.0814 11.7815 16.7891 11.8357 16.5056H9.99995V23.5004C9.99995 23.9869 10.3937 24.3806 10.8802 24.3806H23.1215C23.3546 24.3802 23.5781 24.2872 23.7428 24.1222C23.9075 23.9572 24 23.7335 24 23.5004V16.5056H22.1642C22.2185 16.7891 22.25 17.0814 22.25 17.3806V17.3806ZM17 20.8806C17.4597 20.8805 17.9149 20.7898 18.3396 20.6138C18.7643 20.4378 19.1502 20.1798 19.4752 19.8546C19.8002 19.5295 20.058 19.1435 20.2338 18.7187C20.4096 18.2939 20.5001 17.8386 20.5 17.3789C20.4998 16.9191 20.4092 16.4639 20.2331 16.0392C20.0571 15.6145 19.7991 15.2286 19.474 14.9036C19.1488 14.5786 18.7628 14.3208 18.338 14.145C17.9132 13.9692 17.4579 13.8787 16.9982 13.8789C16.0697 13.8791 15.1793 14.2482 14.523 14.9049C13.8666 15.5616 13.498 16.4521 13.4982 17.3806C13.4984 18.3091 13.8675 19.1995 14.5242 19.8559C15.1809 20.5122 16.0715 20.8809 17 20.8806V20.8806ZM21.2 13.7056H23.2982C23.4376 13.7056 23.5713 13.6503 23.6701 13.5519C23.7688 13.4535 23.8245 13.32 23.825 13.1806V11.0823C23.825 10.9426 23.7695 10.8087 23.6707 10.7099C23.5719 10.6111 23.4379 10.5556 23.2982 10.5556H21.2C21.0603 10.5556 20.9263 10.6111 20.8275 10.7099C20.7287 10.8087 20.6732 10.9426 20.6732 11.0823V13.1806C20.675 13.4694 20.9112 13.7056 21.2 13.7056V13.7056ZM17 0.580566C12.5443 0.580566 8.27117 2.35057 5.12056 5.50119C1.96995 8.65181 0.199951 12.925 0.199951 17.3806C0.199951 21.8363 1.96995 26.1094 5.12056 29.26C8.27117 32.4107 12.5443 34.1807 17 34.1807C19.2062 34.1807 21.3908 33.7461 23.429 32.9018C25.4673 32.0576 27.3193 30.8201 28.8793 29.26C30.4394 27.7 31.6769 25.848 32.5211 23.8097C33.3654 21.7714 33.8 19.5868 33.8 17.3806C33.8 15.1744 33.3654 12.9898 32.5211 10.9515C31.6769 8.91324 30.4394 7.06121 28.8793 5.50119C27.3193 3.94116 25.4673 2.70368 23.429 1.85939C21.3908 1.01511 19.2062 0.580566 17 0.580566V0.580566ZM25.75 24.1864C25.75 25.2556 24.875 26.1306 23.8057 26.1306H10.1942C9.12495 26.1306 8.24995 25.2556 8.24995 24.1864V10.5748C8.24995 9.50559 9.12495 8.63059 10.1942 8.63059H23.8057C24.875 8.63059 25.75 9.50559 25.75 10.5748V24.1864V24.1864Z" fill="white"/>
</svg>
