<svg width="23" height="20" viewBox="0 0 23 20" fill="none" xmlns="http://www.w3.org/2000/svg">
<path d="M20.7111 5.22503C20.7251 5.43822 20.7251 5.65145 20.7251 5.86464C20.7251 12.3671 16.1883 19.8595 7.89639 19.8595C5.34181 19.8595 2.96873 19.0524 0.972534 17.6515C1.33549 17.6971 1.68444 17.7123 2.06136 17.7123C4.16919 17.7123 6.10958 16.9357 7.65907 15.6108C5.67684 15.5651 4.01567 14.1489 3.44332 12.1997C3.72253 12.2453 4.0017 12.2758 4.29488 12.2758C4.69969 12.2758 5.10454 12.2148 5.48142 12.1083C3.41544 11.6514 1.8659 9.67173 1.8659 7.28088V7.21998C2.46613 7.58547 3.16416 7.81389 3.90395 7.84431C2.68948 6.96105 1.89383 5.45345 1.89383 3.74786C1.89383 2.83417 2.11714 1.99661 2.50802 1.26564C4.72757 4.25041 8.06388 6.19961 11.805 6.41284C11.7352 6.04736 11.6933 5.66669 11.6933 5.28597C11.6933 2.57528 13.7034 0.367188 16.2022 0.367188C17.5004 0.367188 18.673 0.961094 19.4966 1.92048C20.5156 1.7073 21.4927 1.29611 22.3583 0.732672C22.0232 1.87483 21.3113 2.83422 20.376 3.44331C21.2834 3.33677 22.1628 3.06259 22.9724 2.68192C22.3583 3.6565 21.5905 4.52448 20.7111 5.22503V5.22503Z" fill="black"/>
</svg>
